# xmcd
#
# Track frame offsets:
#	150
#	1519
#	6876
#	11848
#	18053
#	23315
#	29496
#	37492
#	42369
#	50018
#	55072
#	61906
#	64911
#	70610
#	75743
#	78068
#	80900
#	83657
#	87396
#	91888
#	97071
#	101652
#	105468
#	111816
#	117140
#	121198
#	128077
#	130486
#	137989
#	142479
#	148613
#	153948
#	159159
#	163874
#	169520
#	176372
#	181029
#	188264
#	193856
#	200378
#	206561
#	210826
#	214222
#	223881
#	229667
#	235428
#	240453
#	244873
#	251913
#	256215
#	259321
#	266611
#	270453
#	275093
#	281513
#	287034
#	291705
#	300904
#
# Disc length: 4317 seconds
#
# Revision: 0
# Processed by: cddbd v1.5.2PL0 Copyright (c) Steve Scherf et al.
# Submitted via: audiograbber 1.83.01
#
DISCID=3d10db3a
DTITLE=Quattro Stagioni - Discography 1998 - 2008
DYEAR=2009
DGENRE=Punk
TTITLE0=Intro
TTITLE1=45 rpm
TTITLE2=Always Ask - Never Question
TTITLE3=Burnout Syndrome
TTITLE4=Hey What's Up You Fucker
TTITLE5=Escape
TTITLE6=Hoffi Plus 3
TTITLE7=Harmlosigkeit Einer Abstrakten Kategorie
TTITLE8=Level 6
TTITLE9=Bildungslückensystem
TTITLE10=Klugscheisserelite
TTITLE11=Who I am
TTITLE12=Intro
TTITLE13=The Brains Other Supplier
TTITLE14=Grundbedürfnis and Mwst.
TTITLE15=Hirnwaschstrasse
TTITLE16=Kriegsmonologe
TTITLE17=Quattro Stagioni
TTITLE18=Kaputt-alism
TTITLE19=The Brains Other Supplier
TTITLE20=Anpassungsmaschinerie
TTITLE21=How Will InLive Tomorrow
TTITLE22=Possible Damage
TTITLE23=Sputnik
TTITLE24=Quattro Stagioni
TTITLE25=Blame It On The Money
TTITLE26=Full Speed Ahead
TTITLE27=Instrumental #1
TTITLE28=Fuck The World
TTITLE29=Cancer
TTITLE30=III - 254
TTITLE31=Bastards
TTITLE32=So Frakking What
TTITLE33=Eingebildet Muss Gebildet Werden
TTITLE34=Instrumental #2
TTITLE35=The Green Mile
TTITLE36=Crust
TTITLE37=Prepare For War
TTITLE38=Always The Same
TTITLE39=Realitätsschwund
TTITLE40=Quattro Stagioni (live)
TTITLE41=Hirnwaschstrasse (live)
TTITLE42=Intro - Eingebildet Muss Gebildet Werden (live)
TTITLE43=Sputnik (live)
TTITLE44=The Brains Other Supplier (live)
TTITLE45=Kaputt-alism (live)
TTITLE46=Quattro Stagioni  (live)
TTITLE47=Blame It On The Money (live)
TTITLE48=Anpassungsmaschinerie (live)
TTITLE49=Kriegsmonologe (live)
TTITLE50=Instrumental #1 (live)
TTITLE51=How Will I Live Tomorrow (live)
TTITLE52=So Fucking What (live)
TTITLE53=Crust (live)
TTITLE54=The Brains Other Supplier (live)
TTITLE55=Previous Track (live)
TTITLE56=Intro - Quattro Stagioni (live)
TTITLE57=Remix
EXTD=
EXTT0=
EXTT1=
EXTT2=
EXTT3=
EXTT4=
EXTT5=
EXTT6=
EXTT7=
EXTT8=
EXTT9=
EXTT10=
EXTT11=
EXTT12=
EXTT13=
EXTT14=
EXTT15=
EXTT16=
EXTT17=
EXTT18=
EXTT19=
EXTT20=
EXTT21=
EXTT22=
EXTT23=
EXTT24=
EXTT25=
EXTT26=
EXTT27=
EXTT28=
EXTT29=
EXTT30=
EXTT31=
EXTT32=
EXTT33=
EXTT34=
EXTT35=
EXTT36=
EXTT37=
EXTT38=
EXTT39=
EXTT40=
EXTT41=
EXTT42=
EXTT43=
EXTT44=
EXTT45=
EXTT46=
EXTT47=
EXTT48=
EXTT49=
EXTT50=
EXTT51=
EXTT52=
EXTT53=
EXTT54=
EXTT55=
EXTT56=
EXTT57=
PLAYORDER=
